<svg width="57" height="57" viewBox="0 0 57 57" fill="none" xmlns="http://www.w3.org/2000/svg">
<path d="M10.1207 45.8692C12.8123 43.9312 15.6687 42.3996 18.6897 41.2743C21.7086 40.147 24.9787 39.5833 28.5 39.5833C32.0213 39.5833 35.2914 40.147 38.3103 41.2743C41.3292 42.4017 44.1856 43.9322 46.8793 45.866C48.9693 43.7021 50.6508 41.1477 51.9238 38.2027C53.1968 35.2534 53.8333 32.0192 53.8333 28.5C53.8333 21.4806 51.3665 15.5029 46.4328 10.5672C41.4992 5.63139 35.5216 3.16456 28.5 3.16667C21.4784 3.16878 15.5008 5.63667 10.5672 10.5703C5.6335 15.504 3.16667 21.4806 3.16667 28.5C3.16667 32.0192 3.80317 35.2534 5.07617 38.2027C6.34917 41.1498 8.03067 43.7042 10.1207 45.866M28.5 30.0833C25.8337 30.0833 23.5832 29.1671 21.7487 27.3347C19.9141 25.5022 18.9979 23.2518 19 20.5833C19.0021 17.9149 19.9183 15.6644 21.7487 13.832C23.579 11.9996 25.8294 11.0833 28.5 11.0833C31.1706 11.0833 33.421 11.9996 35.2513 13.832C37.0817 15.6644 37.9979 17.9149 38 20.5833C38.0021 23.2518 37.0859 25.5022 35.2513 27.3347C33.4168 29.1671 31.1663 30.0833 28.5 30.0833ZM28.5 57C24.5248 57 20.8039 56.2601 17.3375 54.7802C13.8711 53.3003 10.8543 51.2778 8.28717 48.7128C5.72006 46.1478 3.69762 43.1311 2.21984 39.6625C0.74206 36.1939 0.00211562 32.4731 4.5045e-06 28.5C-0.00210661 24.5269 0.737838 20.8061 2.21984 17.3375C3.70184 13.8689 5.72428 10.8522 8.28717 8.28717C10.8543 5.72217 13.8711 3.69972 17.3375 2.21983C20.8039 0.739944 24.5248 0 28.5 0C32.4752 0 36.1961 0.739944 39.6625 2.21983C43.1289 3.69972 46.1457 5.72217 48.7128 8.28717C51.2799 10.8522 53.3024 13.8689 54.7802 17.3375C56.2579 20.8061 56.9979 24.5269 57 28.5C57.0021 32.4731 56.2622 36.1939 54.7802 39.6625C53.2982 43.1311 51.2757 46.1478 48.7128 48.7128C46.1457 51.2778 43.1289 53.3003 39.6625 54.7802C36.1961 56.2601 32.4752 57 28.5 57Z" fill="#E3BA87"/>
</svg>
