<svg width="512" height="512" viewBox="0 0 512 512" fill="none" xmlns="http://www.w3.org/2000/svg">
<g clip-path="url(#clip0_1190_10)">
<path d="M512 63.9999V439.701L256 512.853L0 439.701V85.3332C0 65.0666 9.28 46.4426 25.472 34.2399C30.784 30.2292 36.6293 27.4986 42.6667 25.3226V407.531L256 468.48L469.333 407.531V3.98923C475.371 6.16523 481.237 8.89589 486.528 12.9066C502.72 25.1092 512 43.7332 512 63.9999ZM277.333 71.9146V376.192L256 382.293L234.667 376.192V71.9146C234.667 43.4986 215.573 18.1759 186.645 9.98389L151.04 1.47189C117.525 -6.52811 85.3333 18.9012 85.3333 53.3546V377.899L256 426.667L426.667 377.899V54.0799C426.667 20.0106 395.157 -5.33344 361.877 1.98389L323.733 10.3679C296.405 18.1759 277.312 43.4986 277.312 71.9146H277.333Z" fill="#E4DDCA"/>
</g>
<defs>
<clipPath id="clip0_1190_10">
<rect width="512" height="512" fill="white"/>
</clipPath>
</defs>
</svg>
