<svg width="110" height="87" viewBox="0 0 110 87" fill="none" xmlns="http://www.w3.org/2000/svg">
<mask id="path-1-inside-1_268_250" fill="white">
<path fill-rule="evenodd" clip-rule="evenodd" d="M84.8343 79.1468C101.966 68.8373 112.102 51.6519 109.192 34.4323C105.156 10.5488 77.5519 -4.35651 47.5361 1.14041C17.5204 6.63732 -3.54043 30.4549 0.495517 54.3384C2.50599 66.2358 10.3649 75.9053 21.4569 81.9347C14.7223 76.7656 10.052 69.6709 8.6402 61.3164C5.16767 40.7671 22.7244 20.3777 47.8543 15.7756C72.9841 11.1734 96.171 24.1012 99.6435 44.6506C101.811 57.479 95.7836 70.2451 84.8343 79.1468Z"/>
</mask>
<path fill-rule="evenodd" clip-rule="evenodd" d="M84.8343 79.1468C101.966 68.8373 112.102 51.6519 109.192 34.4323C105.156 10.5488 77.5519 -4.35651 47.5361 1.14041C17.5204 6.63732 -3.54043 30.4549 0.495517 54.3384C2.50599 66.2358 10.3649 75.9053 21.4569 81.9347C14.7223 76.7656 10.052 69.6709 8.6402 61.3164C5.16767 40.7671 22.7244 20.3777 47.8543 15.7756C72.9841 11.1734 96.171 24.1012 99.6435 44.6506C101.811 57.479 95.7836 70.2451 84.8343 79.1468Z" fill="url(#paint0_radial_268_250)"/>
<path d="M109.192 34.4323L107.22 34.7656L109.192 34.4323ZM84.8343 79.1468L83.5726 77.595L85.8655 80.8605L84.8343 79.1468ZM0.495517 54.3384L-1.47652 54.6717L0.495517 54.3384ZM21.4569 81.9347L20.5017 83.6919L22.6746 80.3482L21.4569 81.9347ZM8.6402 61.3164L6.66816 61.6497L8.6402 61.3164ZM47.8543 15.7756L47.494 13.8083L47.8543 15.7756ZM99.6435 44.6506L97.6714 44.9838L99.6435 44.6506ZM107.22 34.7656C109.954 50.9418 100.457 67.4113 83.803 77.4332L85.8655 80.8605C103.476 70.2632 114.25 52.362 111.164 34.0991L107.22 34.7656ZM47.8964 3.10769C77.2723 -2.27205 103.439 12.3904 107.22 34.7656L111.164 34.0991C106.873 8.70718 77.8315 -6.44097 47.1759 -0.826877L47.8964 3.10769ZM2.46756 54.0052C-1.31983 31.5925 18.5177 8.48794 47.8964 3.10769L47.1759 -0.826877C16.523 4.78671 -5.76102 29.3173 -1.47652 54.6717L2.46756 54.0052ZM22.4121 80.1776C11.7564 74.3853 4.35759 65.1898 2.46756 54.0052L-1.47652 54.6717C0.654391 67.2818 8.97333 77.4253 20.5017 83.6919L22.4121 80.1776ZM22.6746 80.3482C16.2914 75.4487 11.93 68.7815 10.6122 60.9832L6.66816 61.6497C8.1739 70.5602 13.1532 78.0824 20.2391 83.5213L22.6746 80.3482ZM10.6122 60.9832C7.38099 41.8616 23.7752 22.2186 48.2146 17.7429L47.494 13.8083C21.6737 18.5369 2.95436 39.6725 6.66816 61.6497L10.6122 60.9832ZM48.2146 17.7429C72.6489 13.2681 94.4462 25.898 97.6714 44.9838L101.616 44.3174C97.8957 22.3045 73.3193 9.0788 47.494 13.8083L48.2146 17.7429ZM97.6714 44.9838C99.6923 56.9428 94.1004 69.036 83.5726 77.595L86.0959 80.6987C97.4669 71.4542 103.93 58.0152 101.616 44.3174L97.6714 44.9838Z" fill="white" fill-opacity="0.4" mask="url(#path-1-inside-1_268_250)"/>
<mask id="path-3-inside-2_268_250" fill="white">
<path fill-rule="evenodd" clip-rule="evenodd" d="M57.6876 72.2111C76.5956 71.0483 91.3224 58.3737 90.5811 43.9016C90.0844 34.2068 82.7722 26.1647 72.3146 22.2612C84.0901 25.8717 92.8644 34.3688 94.6931 45.6163C97.5734 63.333 82.1296 81.1651 60.1984 85.4454C38.2672 89.7257 18.1534 78.8333 15.273 61.1166C13.3358 49.2006 19.6877 37.2325 30.7274 29.3705C25.0555 34.4436 21.7484 41.0649 22.1094 48.1125C22.8508 62.5846 38.7797 73.3739 57.6876 72.2111Z"/>
</mask>
<path fill-rule="evenodd" clip-rule="evenodd" d="M57.6876 72.2111C76.5956 71.0483 91.3224 58.3737 90.5811 43.9016C90.0844 34.2068 82.7722 26.1647 72.3146 22.2612C84.0901 25.8717 92.8644 34.3688 94.6931 45.6163C97.5734 63.333 82.1296 81.1651 60.1984 85.4454C38.2672 89.7257 18.1534 78.8333 15.273 61.1166C13.3358 49.2006 19.6877 37.2325 30.7274 29.3705C25.0555 34.4436 21.7484 41.0649 22.1094 48.1125C22.8508 62.5846 38.7797 73.3739 57.6876 72.2111Z" fill="url(#paint1_radial_268_250)"/>
<path d="M90.5811 43.9016L88.5837 44.0039L90.5811 43.9016ZM57.6876 72.2111L57.8104 74.2073L57.6876 72.2111ZM72.3146 22.2612L72.9008 20.3491L71.6152 24.135L72.3146 22.2612ZM94.6931 45.6163L96.6671 45.2954V45.2954L94.6931 45.6163ZM60.1984 85.4454L59.8153 83.4825L60.1984 85.4454ZM15.273 61.1166L17.2471 60.7956L15.273 61.1166ZM30.7274 29.3705L32.0608 30.8612L29.5673 27.7414L30.7274 29.3705ZM22.1094 48.1125L20.112 48.2148L22.1094 48.1125ZM88.5837 44.0039C88.9159 50.4898 85.7929 56.7164 80.1982 61.5314C74.6031 66.3468 66.6193 69.658 57.5649 70.2149L57.8104 74.2073C67.6639 73.6013 76.4975 69.9939 82.8075 64.5632C89.1178 59.1323 92.9876 51.7855 92.5784 43.7993L88.5837 44.0039ZM71.6152 24.135C81.5754 27.8528 88.1399 35.3416 88.5837 44.0039L92.5784 43.7993C92.0289 33.072 83.9689 24.4766 73.014 20.3875L71.6152 24.135ZM71.7283 24.1734C82.9552 27.6157 91.0399 35.6096 92.719 45.9372L96.6671 45.2954C94.689 33.1279 85.225 24.1278 72.9008 20.3491L71.7283 24.1734ZM92.719 45.9372C95.3668 62.2237 81.0904 79.3302 59.8153 83.4825L60.5815 87.4084C83.1688 83.0001 99.78 64.4424 96.6671 45.2954L92.719 45.9372ZM59.8153 83.4825C38.5488 87.633 19.8812 76.9975 17.2471 60.7956L13.299 61.4375C16.4256 80.6691 37.9856 91.8184 60.5815 87.4084L59.8153 83.4825ZM17.2471 60.7956C15.4642 49.8289 21.287 38.5489 31.8876 30.9996L29.5673 27.7414C18.0883 35.9162 11.2074 48.5724 13.299 61.4375L17.2471 60.7956ZM24.1068 48.0101C23.7831 41.6921 26.737 35.623 32.0608 30.8612L29.3941 27.8798C23.3741 33.2643 19.7136 40.4377 20.112 48.2148L24.1068 48.0101ZM57.5649 70.2149C48.5102 70.7717 40.2471 68.4597 34.2077 64.369C28.1718 60.2806 24.4388 54.4909 24.1068 48.0101L20.112 48.2148C20.5214 56.2061 25.1235 63.0471 31.9644 67.6808C38.8018 72.312 47.9571 74.8133 57.8104 74.2073L57.5649 70.2149Z" fill="white" fill-opacity="0.4" mask="url(#path-3-inside-2_268_250)"/>
<mask id="path-5-inside-3_268_250" fill="white">
<path fill-rule="evenodd" clip-rule="evenodd" d="M62.1143 63.9826C74.9361 59.6213 82.6919 47.6799 79.4373 37.3109C76.1828 26.9418 63.1504 22.0716 50.3286 26.4329C37.5069 30.7942 29.7511 42.7356 33.0056 53.1046C34.8826 59.0849 40.0121 63.2361 46.4777 64.8421C42.3087 63.3653 38.9919 60.4004 37.4948 56.279C34.4608 47.9264 40.0499 37.9869 49.9783 34.0786C59.9068 30.1702 70.4148 33.773 73.4488 42.1256C76.4828 50.4781 70.8937 60.4176 60.9653 64.3259C60.8848 64.3576 60.8042 64.3888 60.7237 64.4195C61.1872 64.2858 61.6509 64.1402 62.1143 63.9826Z"/>
</mask>
<path fill-rule="evenodd" clip-rule="evenodd" d="M62.1143 63.9826C74.9361 59.6213 82.6919 47.6799 79.4373 37.3109C76.1828 26.9418 63.1504 22.0716 50.3286 26.4329C37.5069 30.7942 29.7511 42.7356 33.0056 53.1046C34.8826 59.0849 40.0121 63.2361 46.4777 64.8421C42.3087 63.3653 38.9919 60.4004 37.4948 56.279C34.4608 47.9264 40.0499 37.9869 49.9783 34.0786C59.9068 30.1702 70.4148 33.773 73.4488 42.1256C76.4828 50.4781 70.8937 60.4176 60.9653 64.3259C60.8848 64.3576 60.8042 64.3888 60.7237 64.4195C61.1872 64.2858 61.6509 64.1402 62.1143 63.9826Z" fill="url(#paint2_radial_268_250)"/>
<path d="M79.4373 37.3109L77.5291 37.9098L79.4373 37.3109ZM62.1143 63.9826L62.7584 65.8761L62.1143 63.9826ZM50.3286 26.4329L50.9727 28.3264L50.3286 26.4329ZM33.0056 53.1046L34.9138 52.5057L33.0056 53.1046ZM46.4777 64.8421L45.9956 66.7831L47.1455 62.9569L46.4777 64.8421ZM37.4948 56.279L39.3746 55.5961L37.4948 56.279ZM49.9783 34.0786L49.2457 32.2176L49.9783 34.0786ZM60.9653 64.3259L61.6978 66.1869L61.6979 66.1869L60.9653 64.3259ZM60.7237 64.4195L60.0115 62.5506L61.2779 66.3412L60.7237 64.4195ZM77.5291 37.9098C80.3461 46.8849 73.6598 57.9429 61.4702 62.0891L62.7584 65.8761C76.2123 61.2997 85.0376 48.475 81.3455 36.712L77.5291 37.9098ZM50.9727 28.3264C63.1562 24.1822 74.7314 28.9963 77.5291 37.9098L81.3455 36.712C77.6342 24.8873 63.1446 19.961 49.6846 24.5395L50.9727 28.3264ZM34.9138 52.5057C32.0968 43.5307 38.7831 32.4727 50.9727 28.3264L49.6846 24.5395C36.2306 29.1158 27.4053 41.9405 31.0974 53.7036L34.9138 52.5057ZM46.9598 62.9011C41.022 61.4262 36.5398 57.6861 34.9138 52.5057L31.0974 53.7036C33.2255 60.4837 39.0021 65.046 45.9956 66.7831L46.9598 62.9011ZM47.1455 62.9569C43.4586 61.6509 40.6399 59.0795 39.3746 55.5961L35.615 56.9618C37.3438 61.7212 41.1588 65.0798 45.8099 66.7273L47.1455 62.9569ZM39.3746 55.5961C36.818 48.5576 41.4707 39.577 50.7109 35.9396L49.2457 32.2176C38.6291 36.3969 32.1037 47.2951 35.615 56.9618L39.3746 55.5961ZM50.7109 35.9396C59.9389 32.307 69.0354 35.8334 71.569 42.8084L75.3286 41.4427C71.7943 31.7126 59.8746 28.0335 49.2457 32.2176L50.7109 35.9396ZM71.569 42.8084C74.1256 49.8469 69.4729 58.8275 60.2327 62.4649L61.6979 66.1869C72.3145 62.0077 78.8399 51.1094 75.3286 41.4427L71.569 42.8084ZM60.2327 62.4649C60.159 62.4939 60.0853 62.5225 60.0115 62.5506L61.4359 66.2884C61.5232 66.2551 61.6106 66.2213 61.6978 66.1869L60.2327 62.4649ZM61.4702 62.0891C61.0365 62.2367 60.6027 62.3729 60.1694 62.4978L61.2779 66.3412C61.7716 66.1988 62.2653 66.0438 62.7584 65.8761L61.4702 62.0891Z" fill="white" fill-opacity="0.4" mask="url(#path-5-inside-3_268_250)"/>
<defs>
<radialGradient id="paint0_radial_268_250" cx="0" cy="0" r="1" gradientUnits="userSpaceOnUse" gradientTransform="translate(54.8439 40.9674) rotate(90) scale(40.9674 54.8439)">
<stop stop-color="#E8AA4F"/>
<stop offset="0.605" stop-color="#BC783D"/>
<stop offset="1" stop-color="#603A15"/>
</radialGradient>
<radialGradient id="paint1_radial_268_250" cx="0" cy="0" r="1" gradientUnits="userSpaceOnUse" gradientTransform="translate(54.983 54.3186) rotate(90) scale(32.0574 40.0556)">
<stop stop-color="#E8AA4F"/>
<stop offset="0.605" stop-color="#BC783D"/>
<stop offset="1" stop-color="#603A15"/>
</radialGradient>
<radialGradient id="paint2_radial_268_250" cx="0" cy="0" r="1" gradientUnits="userSpaceOnUse" gradientTransform="translate(56.2215 44.8383) rotate(90) scale(20.0038 23.9578)">
<stop stop-color="#E8AA4F"/>
<stop offset="0.605" stop-color="#BC783D"/>
<stop offset="1" stop-color="#603A15"/>
</radialGradient>
</defs>
</svg>
