<svg width="120" height="120" viewBox="0 0 120 120" fill="none" xmlns="http://www.w3.org/2000/svg">
<path d="M57.9167 43.3333H94.15C96.7542 43.3333 98.0542 43.3333 99.0084 43.75C103.225 45.6125 101.342 50.2917 100.633 53.6583C100.567 53.9625 100.431 54.247 100.236 54.4894C100.041 54.7317 99.7916 54.9251 99.5084 55.0542C98.34 55.5923 97.3177 56.403 96.5275 57.418C95.7372 58.433 95.202 59.6228 94.9667 60.8875L92.4959 74.95C91.4125 81.1375 91.0375 89.975 85.6209 94.3333C81.6417 97.5 75.9125 97.5 64.45 97.5H55.55C44.0917 97.5 38.3584 97.5 34.3834 94.3333C28.9625 89.975 28.5917 81.1375 27.5042 74.95L25.0334 60.8875C24.7981 59.6228 24.2629 58.433 23.4726 57.418C22.6823 56.403 21.6601 55.5923 20.4917 55.0542C20.2085 54.9251 19.9593 54.7317 19.764 54.4894C19.5687 54.247 19.4327 53.9625 19.3667 53.6583C18.6584 50.2958 16.775 45.6125 20.9917 43.7542C21.9459 43.3333 23.25 43.3333 25.85 43.3333H41.25M68.3334 60H51.6667M37.0834 55.8333L51.6667 22.5M72.5 22.5L82.9167 43.3333" stroke="#E4BB88" stroke-width="8" stroke-linecap="round" stroke-linejoin="round"/>
<circle cx="60" cy="60" r="56" stroke="#E4BB88" stroke-width="8"/>
</svg>
