<svg width="512" height="512" viewBox="0 0 512 512" fill="none" xmlns="http://www.w3.org/2000/svg">
<g clip-path="url(#clip0_1190_8)">
<path d="M352 0C260.779 0 192 41.28 192 96C192 100.267 192.427 104.469 193.237 108.565C182.571 107.307 171.456 106.667 160 106.667C68.7787 106.667 0 147.947 0 202.667V416C0 470.72 68.7787 512 160 512C251.221 512 320 470.72 320 416V403.52C330.475 404.715 341.205 405.333 352 405.333C443.221 405.333 512 364.053 512 309.333V96C512 41.28 443.221 0 352 0ZM448 202.667C448 210.645 413.952 234.667 352 234.667C341.056 234.667 330.283 233.877 320 232.341V202.667C320 198.4 319.573 194.197 318.763 190.101C329.429 191.36 340.544 192 352 192C388.608 192 421.611 185.344 448 173.845V202.667ZM64 280.512C90.3893 292.011 123.392 298.667 160 298.667C196.608 298.667 229.611 292.011 256 280.512V309.333C256 317.312 221.952 341.333 160 341.333C98.048 341.333 64 317.312 64 309.333V280.512ZM352 64C413.952 64 448 88.0213 448 96C448 103.979 413.952 128 352 128C290.048 128 256 103.979 256 96C256 88.0213 290.048 64 352 64ZM160 170.667C221.952 170.667 256 194.688 256 202.667C256 210.645 221.952 234.667 160 234.667C98.048 234.667 64 210.645 64 202.667C64 194.688 98.048 170.667 160 170.667ZM160 448C98.048 448 64 423.979 64 416V387.179C90.3893 398.677 123.392 405.333 160 405.333C196.608 405.333 229.611 398.677 256 387.179V416C256 423.979 221.952 448 160 448ZM352 341.333C341.056 341.333 330.283 340.544 320 339.008V296.853C330.475 298.048 341.205 298.667 352 298.667C388.608 298.667 421.611 292.011 448 280.512V309.333C448 317.312 413.952 341.333 352 341.333Z" fill="#E4DDCA"/>
</g>
<defs>
<clipPath id="clip0_1190_8">
<rect width="512" height="512" fill="white"/>
</clipPath>
</defs>
</svg>
