<svg width="512" height="512" viewBox="0 0 512 512" fill="none" xmlns="http://www.w3.org/2000/svg">
<path d="M436.544 164.544L242.41 22.1015C225.508 9.69591 205.498 2.21782 184.602 0.497673C163.706 -1.22248 142.742 2.88264 124.038 12.3572C105.335 21.8317 89.623 36.3048 78.6479 54.1694C67.6729 72.0341 61.864 92.591 61.8664 113.558V398.443C61.8259 419.418 67.6086 439.993 78.5706 457.875C89.5327 475.758 105.244 490.247 123.954 499.728C142.664 509.209 163.638 513.31 184.542 511.575C205.445 509.839 225.456 502.336 242.346 489.899L436.586 347.456C450.955 336.926 462.641 323.158 470.696 307.268C478.751 291.379 482.948 273.815 482.948 256C482.948 238.186 478.751 220.622 470.696 204.732C462.641 188.843 450.955 175.075 436.586 164.544H436.544ZM398.698 295.851L204.565 438.294C197.2 443.706 188.478 446.97 179.369 447.723C170.26 448.476 161.12 446.689 152.966 442.56C144.812 438.431 137.962 432.122 133.178 424.333C128.394 416.545 125.863 407.583 125.866 398.443V113.558C125.769 104.404 128.26 95.4095 133.054 87.6112C137.848 79.8128 144.748 73.5284 152.96 69.4829C159.912 65.9133 167.609 64.0348 175.424 64.0002C185.897 64.0519 196.079 67.4533 204.48 73.7069L398.613 216.15C404.874 220.738 409.965 226.738 413.475 233.661C416.985 240.585 418.814 248.238 418.814 256C418.814 263.763 416.985 271.416 413.475 278.339C409.965 285.263 404.874 291.262 398.613 295.851H398.698Z" fill="#E4DDCA"/>
</svg>
