<svg width="25" height="20" viewBox="0 0 25 20" fill="none" xmlns="http://www.w3.org/2000/svg">
<path d="M22.4406 4.9762C22.4562 5.19264 22.4562 5.41011 22.4562 5.62861C22.4562 12.3035 17.2958 20 7.8625 20V19.9969C5.07524 20.0007 2.34577 19.2144 0 17.732C1.34287 17.8913 2.70447 17.7884 4.00693 17.4292C5.30939 17.0699 6.52717 16.4614 7.59062 15.6383C6.52025 15.6184 5.48297 15.2695 4.62384 14.6405C3.7647 14.0114 3.12667 13.1337 2.79896 12.1301C3.56738 12.276 4.35953 12.2465 5.11458 12.0439C3.95389 11.8129 2.91007 11.1936 2.16014 10.2911C1.41021 9.38867 1.00032 8.25854 1 7.09242V7.02882C1.71334 7.42029 2.51185 7.63702 3.32812 7.66071C2.24215 6.94662 1.47335 5.85181 1.17823 4.59916C0.883105 3.34651 1.08384 2.03018 1.73958 0.918156C3.02772 2.47854 4.6347 3.7547 6.4562 4.66377C8.2777 5.57283 10.273 6.09448 12.3125 6.19485C12.0584 5.11245 12.1734 3.97778 12.6398 2.9662C13.1061 1.95461 13.8977 1.12242 14.8924 0.598235C15.887 0.0740488 17.0293 -0.112951 18.1426 0.0661343C19.256 0.24522 20.2785 0.780421 21.0521 1.58903C22.2012 1.36587 23.3032 0.95095 24.3104 0.362175C23.9276 1.53207 23.1261 2.52512 22.0552 3.15644C23.0716 3.0379 24.0643 2.76992 25 2.36145C24.3113 3.37574 23.4446 4.26114 22.4406 4.9762Z" fill="#E4DDCA"/>
</svg>
