<svg width="25" height="26" viewBox="0 0 25 26" fill="none" xmlns="http://www.w3.org/2000/svg">
<path d="M1.75 2.25C3.31137e-07 4.01667 0 6.84167 0 12.5V13.5C0 19.15 3.31137e-07 21.975 1.75 23.75C3.51667 25.5 6.34167 25.5 12 25.5H13C18.65 25.5 21.475 25.5 23.25 23.75C25 21.9833 25 19.1583 25 13.5V12.5C25 6.85 25 4.025 23.25 2.25C21.4833 0.5 18.6583 0.5 13 0.5H12C6.35 0.5 3.525 0.5 1.75 2.25ZM4.21667 8.10833H7.08333C7.175 12.875 9.275 14.8917 10.9417 15.3083V8.10833H13.6333V12.2167C15.275 12.0417 17.0083 10.1667 17.5917 8.1H20.275C20.0563 9.16983 19.6193 10.1831 18.9912 11.0763C18.3632 11.9696 17.5577 12.7238 16.625 13.2917C17.6659 13.8095 18.5851 14.5423 19.322 15.4415C20.0589 16.3407 20.5967 17.386 20.9 18.5083H17.9417C17.3083 16.5333 15.725 15 13.6333 14.7917V18.5083H13.3C7.6 18.5083 4.35 14.6083 4.21667 8.10833Z" fill="#E4DDCA"/>
</svg>
